# xmcd
#
# Track frame offsets:
# 225
# 15692
# 31242
# 57784
# 80846
# 98330
# 116448
# 134052
# 149139
# 165986
# 189057
# 206311
#
# Disc length: 3012 seconds
#
#
# Revision: 0
# Processed by: cddbd v1.5.2PL0 Copyright (c) Steve Scherf et al.
# Submitted via: Nero 7, 11, 10, 0 
#
DISCID=990bc10c
DTITLE=Elliott Chavers - The Return Of A Legend
DYEAR=1999
DGENRE=Blues
TTITLE0=Rock This Mother, Pt. 1
TTITLE1=Rock This Mother, Pt. 2
TTITLE2=I Don't Know
TTITLE3=Sister Martha
TTITLE4=Midnight Grinder
TTITLE5=Rooty Tooty Booty
TTITLE6=Mistreated And Abused
TTITLE7=Sipping Suds At The Pub
TTITLE8=Betty Jo
TTITLE9=After Midnight Blues
TTITLE10=Fool Fool Fool
TTITLE11=Jazzy Blues
EXTD=
EXTT0=Rock This Mother, Pt. 1
EXTT1=Rock This Mother, Pt. 2
EXTT2=I Don't Know
EXTT3=Sister Martha
EXTT4=Midnight Grinder
EXTT5=Rooty Tooty Booty
EXTT6=Mistreated And Abused
EXTT7=Sipping Suds At The Pub
EXTT8=Betty Jo
EXTT9=After Midnight Blues
EXTT10=Fool Fool Fool
EXTT11=Jazzy Blues
PLAYORDER=
